# xmcd
#
# Track frame offsets: 
#        150
#        16089
#        36600
#        57417
#        75371
#        94775
#        111211
#        137911
#        155994
#        172726
#        192171
#        211000
#        231926
#        255109
#        271688
#        291346
#        308015
#        323848
#
# Disc length: 4537 seconds
#
# Revision: 0
# Processed by: cddbd v1.5.1PL0 Copyright (c) Steve Scherf et al.
# Submitted via: ExactAudioCopy v0.95a4
#
DISCID=ee11b712
DTITLE=张学友 - 黑与白
DYEAR=1900
DGENRE=Classical
TTITLE0=黑白映画
TTITLE1=我不明白
TTITLE2=Sorry
TTITLE3=忘了哭
TTITLE4=如果不爱你
TTITLE5=讲你知
TTITLE6=刹那爱
TTITLE7=女人心
TTITLE8=如果这都不算爱
TTITLE9=天气这么热
TTITLE10=情书
TTITLE11=祝福
TTITLE12=吻别
TTITLE13=花花公子
TTITLE14=天下第一流
TTITLE15=头发乱了
TTITLE16=饿狼传说
TTITLE17=等你等到不知痛
EXTD=
EXTT0=
EXTT1=
EXTT2=
EXTT3=
EXTT4=
EXTT5=
EXTT6=
EXTT7=
EXTT8=
EXTT9=
EXTT10=
EXTT11=
EXTT12=
EXTT13=
EXTT14=
EXTT15=
EXTT16=
EXTT17=
PLAYORDER=
